<?xml version="1.0" encoding="UTF-8"?>
<svg id="_레이어_1" data-name="레이어_1" xmlns="http://www.w3.org/2000/svg" version="1.1" viewBox="0 0 328.9 51.34">
  <!-- Generator: Adobe Illustrator 30.3.0, SVG Export Plug-In . SVG Version: 2.1.3 Build 182)  -->
  <defs>
    <style>
      .st0 {
        fill: #0071ce;
      }

      .st1 {
        fill: #001c65;
      }
    </style>
  </defs>
  <path class="st0" d="M99.02,0h-.02C95.3,0,91.83,1,88.85,2.73c-.99.58-1.93,1.23-2.8,1.97-1.05.88-2.01,1.86-2.86,2.93-.02.03-.04.05-.06.08-.12.15-.23.29-.34.44l-4.81,6.22h0s-10.57,13.72-10.57,13.72l-.06.07-2.58,3.35c-1.68,1.97-3.21,3.32-4.58,4.21-5.33,3.48-8.27.08-8.5-.19,0-.01-.01-.02-.01-.02h0s0,0,0,0c-.7-.79-1.13-1.82-1.13-2.96,0-1,.33-1.93.9-2.67l15.29-19.72,7.88-10.16h-18.02l-7.87,10.16-11.37,14.67-2.86,3.69h0s-.28.36-.28.36l-.07.09-1.4,1.82c-1.94,2.4-3.68,3.97-5.23,4.97-3.81,2.46-6.39,1.41-7.62.52-.01,0-.02-.01-.03-.02,0,0,0,0,0,0-.06-.04-.12-.09-.18-.14-.06-.05-.11-.09-.16-.14-.06-.05-.11-.1-.16-.15-.01-.01-.02-.02-.03-.03,0,0-.01-.01-.02-.02-.02-.03-.05-.05-.07-.08-.06-.06-.11-.12-.17-.19-.57-.7-.91-1.59-.91-2.56,0-.9.3-1.74.8-2.41.02-.02.04-.05.05-.07,0,0,0,0,0,0h0l2.09-2.7,8.25-10.65,5.38-6.94.02-.02,2.12-2.73,5.76-7.43H0v13.02h14.5l-1.46,1.88-5.54,7.15-.09.12-.14.17c-2.34,3.03-3.73,6.83-3.73,10.95,0,8.41,5.77,15.46,13.57,17.42.64.13,1.3.24,1.96.33.75.1,1.52.16,2.29.19.2,0,.39.01.59.01,0,0,0,0,0,0,0,0,0,0,.01,0,.13,0,.25,0,.38,0,.01,0,.03,0,.04,0,.28,0,.56,0,.83-.02.06,0,.11,0,.17,0,.28-.01.55-.03.83-.05.11,0,.22-.02.32-.03.18-.02.35-.03.52-.05.12-.01.23-.02.35-.04.2-.02.4-.05.6-.08.18-.03.35-.05.53-.08.11-.02.23-.04.34-.06.5-.09,1-.19,1.49-.31.1-.03.21-.05.31-.08.18-.05.36-.09.53-.14.17-.05.35-.1.52-.15.1-.03.2-.06.3-.09.24-.08.48-.15.73-.24.05-.02.11-.04.16-.06.22-.08.44-.16.66-.24.08-.03.15-.06.23-.09.21-.08.41-.17.62-.26.12-.05.24-.11.36-.16.12-.05.24-.11.36-.17.21-.1.41-.19.61-.3.11-.06.22-.11.33-.17.13-.07.25-.13.38-.2.15-.08.3-.16.44-.25.12-.07.25-.14.37-.21.18-.11.36-.22.54-.33.06-.04.12-.07.17-.11.92-.58,1.8-1.22,2.63-1.91,3.43,2.84,7.57,4.75,12.03,5.5.02,0,.03,0,.05,0,.2.03.41.07.62.09.03,0,.07,0,.1.01.19.03.37.05.56.07.05,0,.1.01.15.02.17.02.34.03.51.05.06,0,.13.01.19.02.16.01.31.02.47.03.08,0,.16.01.23.02.14,0,.29.01.43.02.09,0,.18,0,.27.01.13,0,.26,0,.39,0,.1,0,.19,0,.29,0,.02,0,.05,0,.07,0,.26,0,.52,0,.78-.01.08,0,.15,0,.23,0,.28-.01.55-.03.82-.05,0,0,.01,0,.01,0,.31-.02.61-.05.91-.09.03,0,.06,0,.09,0,.3-.03.6-.07.9-.12,0,0,.02,0,.02,0,.31-.05.61-.1.92-.15,0,0,.02,0,.03,0,.3-.06.61-.12.91-.19,0,0,.02,0,.02,0,.27-.06.54-.13.81-.2.1-.03.2-.05.3-.08.14-.04.29-.08.43-.12,3.23-.94,6.21-2.51,8.82-4.63.15-.13.31-.25.46-.38.04-.03.08-.07.12-.1.23-.2.46-.4.68-.6,1.08-.99,2.98-3.25,2.98-3.25l7.21-9.34,9.99-12.94,1.83-2.37c1.15-1.49,2.87-2.34,4.74-2.34,3.29,0,5.97,2.68,5.97,5.97s-2.68,5.97-5.97,5.97c-.68,0-1.36-.12-2-.35-.61-.22-1.17-.53-1.67-.93l-8.73,11.32-.39.51,13.49,14.59h17.88l-11.48-12.15c6.33-2.38,11.16-7.85,12.64-14.57.02-.08.03-.16.05-.24.03-.15.06-.3.09-.45.23-1.22.35-2.46.35-3.71C119.25,9.08,110.18,0,99.02,0Z"/>
  <g>
    <g>
      <path class="st1" d="M146.82,20.64h-2.53v-4.41h-10.09v-2.18h5.09v-2.09h-6.48v-2.18h15.46v2.18h-6.45v2.09h5v6.59ZM146.49,8.81h-2.53v-3.32h-9.67v-2.18h12.2v5.5Z"/>
      <path class="st1" d="M150.12,15.13c1.8-.55,2.95-2.18,2.95-4.87v-3.99h-2.69v-2.18h7.91v2.18h-2.69v3.99c0,2.69,1.15,4.32,2.95,4.87v2.25c-1.89-.48-3.41-1.58-4.21-3.32-.81,1.74-2.33,2.84-4.21,3.32v-2.25ZM162.23,20.33h-2.45v-9.21h-2.27v-2.18h2.27V3.18h2.45v17.15ZM166.06,20.44h-2.49V3.04h2.49v17.4Z"/>
      <path class="st1" d="M168.18,8.06c0-2.53,2.03-4.58,4.87-4.58s4.87,2.05,4.87,4.58-2.03,4.58-4.87,4.58-4.87-2.05-4.87-4.58ZM182.97,20.26h-12.86v-6.27h2.53v4.09h10.33v2.18ZM175.42,8.06c0-1.37-.99-2.42-2.36-2.42s-2.36,1.04-2.36,2.42.99,2.42,2.36,2.42,2.36-1.04,2.36-2.42ZM182.86,15.64h-2.53V3.04h2.53v12.6Z"/>
      <path class="st1" d="M193.01,15.22h-2.45v-3.1c-1.65.05-3.37.04-5.07,0v-2.13c4.6.06,8.5-.02,11.5-.59v2.13c-1.1.22-2.47.37-3.98.48v3.21ZM195.15,9.03h-2.53v-3.08h-6.34v-2.2h8.87v5.28ZM200.67,20.26h-13.3v-5.5h2.53v3.32h10.77v2.18ZM200.68,16.47h-2.53v-1.5h-3.92v-2.02h3.92V3.04h2.53v13.43Z"/>
      <path class="st1" d="M203.32,8.11c0-2.53,1.98-4.58,4.76-4.58s4.76,2.05,4.76,4.58-1.98,4.58-4.76,4.58-4.76-2.05-4.76-4.58ZM218.49,20.26h-12.71v-6.27h2.53v4.1h10.19v2.16ZM210.32,8.11c0-1.37-.93-2.42-2.23-2.42s-2.24,1.04-2.24,2.42.93,2.42,2.24,2.42,2.23-1.04,2.23-2.42ZM218.27,15.64h-2.53v-4.38h-2.27v-2.18h2.27v-2.07h-2.27v-2.18h2.27v-1.8h2.53v12.6Z"/>
      <path class="st1" d="M220.69,4.17h7.05v2.18h-4.56v8.88c1.67.04,3.77-.16,5.4-.64v2.12c-1.67.55-4.63.88-7.9.7V4.17ZM236.41,20.44h-2.47v-8.9h-1.92v8.79h-2.45V3.18h2.45v6.17h1.91V3.04h2.49v17.4Z"/>
      <path class="st1" d="M248.74,12.99h-2.45v-1.8c-1.34.04-2.71.04-4.05.04v-2.02c4.43.02,8.85-.13,11.54-.51v1.98c-1.28.2-3.06.35-5.04.42v1.89ZM243.83,5.84c0-1.76,1.61-2.99,3.96-2.99s3.96,1.23,3.96,2.99-1.61,2.99-3.96,2.99-3.96-1.23-3.96-2.99ZM257.55,20.48h-13.39v-4.51h10.55v-.55h-10.55v-2.01h13.08v4.47h-10.55v.59h10.86v2.02ZM249.31,5.84c0-.68-.64-1.1-1.5-1.1s-1.54.42-1.54,1.1.68,1.1,1.54,1.1,1.5-.42,1.5-1.1ZM257.24,12.99h-6.21v-1.76h3.68V3.04h2.53v9.95Z"/>
      <path class="st1" d="M275.42,19.25h-15.46v-2.2h15.46v2.2ZM274.06,13.13h-12.71V3.99h12.68v2.18h-10.15v4.78h10.19v2.18Z"/>
      <path class="st1" d="M277.64,9.56h5.83v-3.66h-5.83v-2.18h8.35v8.01h-5.83v3.85c2.42.09,5.42-.2,7.66-.79v2.12c-2.29.71-6.39,1.03-10.19.84v-8.19ZM291.39,20.44h-2.53V3.04h2.53v6.74h2.45v2.18h-2.45v8.48Z"/>
      <path class="st1" d="M295.28,9.32c0-2.88,2.03-5.22,5.22-5.22s5.22,2.33,5.22,5.22-2.03,5.22-5.22,5.22-5.22-2.34-5.22-5.22ZM303.21,9.32c0-1.83-1.08-3.04-2.71-3.04s-2.71,1.26-2.71,3.04,1.08,3.04,2.71,3.04,2.71-1.26,2.71-3.04ZM310.01,20.44h-2.55V3.04h2.55v17.4Z"/>
      <path class="st1" d="M328.18,19.31h-15.46v-2.18h15.46v2.18ZM313.58,12c3.32-.59,5.57-1.83,5.57-4.47v-.09h-5.33v-2.18h5.37v-1.91h2.53v1.91h5.37v2.18h-5.33v.09c0,2.66,2.23,3.92,5.55,4.47v2.22c-3.02-.46-5.33-1.45-6.85-3.24-1.54,1.78-3.83,2.78-6.87,3.24v-2.22Z"/>
    </g>
    <g>
      <path class="st1" d="M137.63,30.25l3.06,11.46,3.76-11.46h3.67l3.76,11.46,3.06-11.46h4.82l-5.29,17.74h-4.71l-3.48-10.28-3.48,10.28h-4.71l-5.29-17.74h4.82Z"/>
      <path class="st1" d="M160.45,39.12c0-1.32.24-2.54.73-3.68.49-1.14,1.16-2.13,2.02-2.98.86-.85,1.89-1.51,3.09-1.99,1.2-.48,2.52-.72,3.96-.72s2.74.24,3.95.72c1.21.48,2.25,1.14,3.12,1.99.87.85,1.55,1.84,2.04,2.98.49,1.14.73,2.36.73,3.68s-.24,2.55-.73,3.68c-.49,1.14-1.16,2.13-2.04,2.98-.87.85-1.91,1.51-3.12,1.99-1.21.48-2.53.72-3.95.72s-2.76-.24-3.96-.72c-1.2-.48-2.23-1.14-3.09-1.99-.86-.85-1.54-1.84-2.02-2.98-.49-1.14-.73-2.36-.73-3.68ZM165.27,39.12c0,.71.13,1.36.4,1.95.27.6.63,1.11,1.08,1.55.45.44.98.78,1.59,1.02.6.24,1.24.36,1.92.36s1.31-.12,1.92-.36c.6-.24,1.14-.58,1.6-1.02.46-.44.83-.96,1.09-1.55.27-.6.4-1.25.4-1.95s-.13-1.36-.4-1.95c-.27-.6-.63-1.11-1.09-1.55-.46-.44-1-.78-1.6-1.02-.6-.24-1.24-.36-1.92-.36s-1.31.12-1.92.36c-.6.24-1.13.58-1.59,1.02-.45.44-.82.96-1.08,1.55s-.4,1.25-.4,1.95Z"/>
      <path class="st1" d="M197.76,47.99h-5.74l-4.4-6.82v6.82h-4.61v-17.74h7.18c.99,0,1.85.15,2.59.44.74.29,1.34.69,1.82,1.19.48.5.84,1.08,1.08,1.74.24.66.36,1.36.36,2.12,0,1.35-.33,2.44-.98,3.28-.65.84-1.61,1.41-2.88,1.71l5.58,7.27ZM187.62,38.18h.87c.91,0,1.61-.19,2.09-.56.49-.38.73-.92.73-1.62s-.24-1.25-.73-1.62c-.49-.38-1.18-.56-2.09-.56h-.87v4.38Z"/>
      <path class="st1" d="M204.3,30.25v13.83h5.53v3.91h-10.14v-17.74h4.61Z"/>
      <path class="st1" d="M212.21,30.25h6.82c1.21,0,2.34.24,3.4.73,1.06.49,1.98,1.13,2.78,1.94.79.81,1.42,1.75,1.87,2.82.45,1.07.68,2.2.68,3.38s-.22,2.28-.67,3.35c-.45,1.07-1.07,2.02-1.86,2.84-.79.82-1.72,1.47-2.78,1.95-1.06.49-2.2.73-3.42.73h-6.82v-17.74ZM216.82,44.09h1.06c.8,0,1.51-.13,2.14-.38.63-.25,1.16-.6,1.59-1.04.43-.44.76-.96.99-1.56.23-.6.34-1.27.34-1.99s-.12-1.36-.35-1.98c-.24-.61-.57-1.14-1-1.58-.43-.44-.96-.78-1.59-1.04-.63-.25-1.33-.38-2.12-.38h-1.06v9.93Z"/>
      <path class="st1" d="M253.45,47.99h-5.74l-4.4-6.82v6.82h-4.61v-17.74h7.18c.99,0,1.85.15,2.59.44.74.29,1.34.69,1.82,1.19.48.5.84,1.08,1.08,1.74.24.66.36,1.36.36,2.12,0,1.35-.33,2.44-.98,3.28-.65.84-1.61,1.41-2.88,1.71l5.58,7.27ZM243.31,38.18h.87c.91,0,1.61-.19,2.09-.56.49-.38.73-.92.73-1.62s-.24-1.25-.73-1.62c-.49-.38-1.18-.56-2.09-.56h-.87v4.38Z"/>
      <path class="st1" d="M259.99,30.25v17.74h-4.61v-17.74h4.61Z"/>
      <path class="st1" d="M272.35,38.06h9.15c0,.94-.04,1.8-.12,2.56-.08.77-.24,1.48-.47,2.14-.33.93-.78,1.75-1.34,2.46-.56.71-1.23,1.31-1.99,1.79-.76.48-1.6.84-2.51,1.09-.91.25-1.87.38-2.87.38-1.38,0-2.64-.23-3.78-.68-1.14-.45-2.11-1.09-2.93-1.92-.82-.82-1.45-1.81-1.91-2.96-.46-1.15-.68-2.43-.68-3.82s.22-2.65.67-3.8c.45-1.15,1.08-2.14,1.91-2.95.82-.82,1.82-1.45,2.98-1.91,1.16-.45,2.45-.68,3.88-.68,1.85,0,3.47.4,4.87,1.2,1.4.8,2.5,2.04,3.32,3.72l-4.38,1.81c-.41-.97-.94-1.67-1.59-2.09-.65-.42-1.39-.64-2.22-.64-.69,0-1.32.13-1.88.39-.56.26-1.05.63-1.45,1.11-.4.48-.71,1.06-.94,1.73-.23.67-.34,1.43-.34,2.26,0,.75.1,1.45.29,2.09.2.64.49,1.2.88,1.67.39.47.88.84,1.46,1.09.58.26,1.25.39,2.02.39.45,0,.89-.05,1.32-.15.42-.1.8-.27,1.14-.49.34-.23.62-.52.83-.88.22-.36.37-.8.45-1.32h-3.79v-3.58Z"/>
      <path class="st1" d="M289.03,37.1h6.66v-6.85h4.61v17.74h-4.61v-7.32h-6.66v7.32h-4.61v-17.74h4.61v6.85Z"/>
      <path class="st1" d="M310.74,34.16v13.83h-4.61v-13.83h-3.79v-3.91h12.19v3.91h-3.79Z"/>
      <path class="st1" d="M326.34,34.79c-.5-.41-1-.71-1.51-.91-.5-.2-.99-.29-1.46-.29-.6,0-1.08.14-1.46.42-.38.28-.56.65-.56,1.11,0,.31.09.57.28.78.19.2.44.38.74.53.31.15.65.28,1.04.39.38.11.76.23,1.14.35,1.51.5,2.61,1.17,3.31,2.01.7.84,1.05,1.93,1.05,3.28,0,.91-.15,1.73-.46,2.47-.31.74-.75,1.37-1.34,1.89-.59.53-1.31.93-2.16,1.22-.85.29-1.82.43-2.91.43-2.24,0-4.32-.67-6.23-2l1.98-3.72c.69.61,1.37,1.07,2.05,1.36.67.3,1.34.45,2,.45.75,0,1.31-.17,1.68-.52.37-.34.55-.74.55-1.18,0-.27-.05-.5-.14-.69-.09-.2-.25-.38-.47-.54-.22-.16-.51-.32-.86-.46-.35-.14-.78-.3-1.28-.47-.6-.19-1.18-.4-1.75-.62-.57-.23-1.08-.53-1.53-.91-.45-.38-.81-.85-1.08-1.42-.27-.57-.41-1.3-.41-2.18s.14-1.67.44-2.39c.29-.71.7-1.32,1.22-1.84.53-.51,1.17-.91,1.93-1.19.76-.28,1.61-.42,2.55-.42.88,0,1.8.12,2.75.36.96.24,1.87.6,2.75,1.07l-1.84,3.6Z"/>
    </g>
  </g>
</svg>